<svg width="46" height="33" viewBox="0 0 46 33" fill="none" xmlns="http://www.w3.org/2000/svg">
<path d="M8.56678 23.1014L8.56257 23.3027L8.69906 23.4508C11.735 26.7436 16.888 28.8758 22.6667 28.8758C28.4453 28.8758 33.5983 26.7436 36.6343 23.4508L36.7708 23.3027L36.7666 23.1014C36.7444 22.0406 35.9967 21.1923 35.0269 20.5382C34.0416 19.8735 32.7126 19.3282 31.2769 18.8956C28.4023 18.0293 24.9707 17.5768 22.6667 17.5768C20.3514 17.5768 16.9198 18.0293 14.0478 18.8957C12.6135 19.3283 11.2865 19.8736 10.3029 20.5384C9.33457 21.1929 8.58894 22.0411 8.56678 23.1014ZM0.5 16.6055C0.5 12.2949 2.92448 8.34482 6.93381 5.45321C10.9424 2.56216 16.504 0.757812 22.6667 0.757812C28.8293 0.757812 34.391 2.56216 38.3995 5.45321C42.4088 8.34482 44.8333 12.2949 44.8333 16.6055C44.8333 20.916 42.4088 24.8661 38.3995 27.7577C34.391 30.6488 28.8293 32.4531 22.6667 32.4531C16.504 32.4531 10.9424 30.6488 6.93381 27.7577C2.92448 24.8661 0.5 20.916 0.5 16.6055ZM29.9667 10.0664C29.9667 8.50891 29.0939 7.14581 27.7701 6.19108C26.446 5.23606 24.6408 4.66211 22.6667 4.66211C20.6925 4.66211 18.8874 5.23606 17.5632 6.19108C16.2394 7.14581 15.3667 8.50891 15.3667 10.0664C15.3667 11.6239 16.2394 12.987 17.5632 13.9417C18.8874 14.8967 20.6925 15.4707 22.6667 15.4707C24.6408 15.4707 26.446 14.8967 27.7701 13.9417C29.0939 12.987 29.9667 11.6239 29.9667 10.0664Z" stroke="white"/>
</svg>
